<svg xmlns="http://www.w3.org/2000/svg" width="1280" height="1858" viewBox="0 0 1280 1858">
<rect width="100%" height="100%" fill="#fbfaf7"/>
<style>text{font-family:'Microsoft YaHei',Arial,sans-serif;fill:#172033;font-size:14px}.title{font-size:25px;font-weight:700}.sub{fill:#596275;font-size:13px}.section{font-size:18px;font-weight:700}.rank{font-weight:700}</style>
<text x="70" y="38" class="title">Baseline ranked candidates</text>
<text x="70" y="62" class="sub">Raw logits are only used for ranking within this model; green bars mean the token/group appears later in the hidden future.</text>
<text x="70" y="92" class="section">Top diagnosis candidates</text>
<text x="70" y="148" class="rank">#1</text>
<text x="120" y="148">diag:I63</text>
<rect x="330" y="128" width="730.0" height="26" rx="8" fill="#16a34a" opacity="0.88"/>
<text x="1072.0" y="148" class="sub">logit -5.459; observed later</text>
<text x="70" y="186" class="rank">#2</text>
<text x="120" y="186">diag:G45</text>
<rect x="330" y="166" width="349.7" height="26" rx="8" fill="#2563eb" opacity="0.88"/>
<text x="691.7" y="186" class="sub">logit -7.288; not observed later</text>
<text x="70" y="224" class="rank">#3</text>
<text x="120" y="224">diag:I61</text>
<rect x="330" y="204" width="328.6" height="26" rx="8" fill="#2563eb" opacity="0.88"/>
<text x="670.6" y="224" class="sub">logit -7.390; not observed later</text>
<text x="70" y="262" class="rank">#4</text>
<text x="120" y="262">diag:H53</text>
<rect x="330" y="242" width="238.7" height="26" rx="8" fill="#2563eb" opacity="0.88"/>
<text x="580.7" y="262" class="sub">logit -7.822; not observed later</text>
<text x="70" y="300" class="rank">#5</text>
<text x="120" y="300">diag:E87</text>
<rect x="330" y="280" width="178.5" height="26" rx="8" fill="#2563eb" opacity="0.88"/>
<text x="520.5" y="300" class="sub">logit -8.112; not observed later</text>
<text x="70" y="338" class="rank">#6</text>
<text x="120" y="338">diag:G43</text>
<rect x="330" y="318" width="145.0" height="26" rx="8" fill="#2563eb" opacity="0.88"/>
<text x="487.0" y="338" class="sub">logit -8.273; not observed later</text>
<text x="70" y="376" class="rank">#7</text>
<text x="120" y="376">diag:I67</text>
<rect x="330" y="356" width="140.9" height="26" rx="8" fill="#2563eb" opacity="0.88"/>
<text x="482.9" y="376" class="sub">logit -8.292; not observed later</text>
<text x="70" y="414" class="rank">#8</text>
<text x="120" y="414">diag:I48</text>
<rect x="330" y="394" width="123.6" height="26" rx="8" fill="#2563eb" opacity="0.88"/>
<text x="465.6" y="414" class="sub">logit -8.376; not observed later</text>
<text x="70" y="452" class="rank">#9</text>
<text x="120" y="452">diag:I64</text>
<rect x="330" y="432" width="111.8" height="26" rx="8" fill="#2563eb" opacity="0.88"/>
<text x="453.8" y="452" class="sub">logit -8.432; not observed later</text>
<text x="70" y="490" class="rank">#10</text>
<text x="120" y="490">diag:J18</text>
<rect x="330" y="470" width="110.0" height="26" rx="8" fill="#2563eb" opacity="0.88"/>
<text x="452.0" y="490" class="sub">logit -8.441; not observed later</text>
<text x="70" y="542" class="section">Top selected disease groups</text>
<text x="70" y="598" class="rank">#1</text>
<text x="120" y="598">Cerebrovascular disease (I60-I69)</text>
<rect x="330" y="578" width="730.0" height="26" rx="8" fill="#16a34a" opacity="0.88"/>
<text x="1072.0" y="598" class="sub">logit -5.459; observed later</text>
<text x="70" y="636" class="rank">#2</text>
<text x="120" y="636">Atrial fibrillation and flutter (I48)</text>
<rect x="330" y="616" width="527.2" height="26" rx="8" fill="#2563eb" opacity="0.88"/>
<text x="869.2" y="636" class="sub">logit -8.376; not observed later</text>
<text x="70" y="674" class="rank">#3</text>
<text x="120" y="674">Ischemic heart disease (I20-I25)</text>
<rect x="330" y="654" width="462.1" height="26" rx="8" fill="#2563eb" opacity="0.88"/>
<text x="804.1" y="674" class="sub">logit -9.313; not observed later</text>
<text x="70" y="712" class="rank">#4</text>
<text x="120" y="712">Myocardial infarction (I21-I22)</text>
<rect x="330" y="692" width="462.1" height="26" rx="8" fill="#2563eb" opacity="0.88"/>
<text x="804.1" y="712" class="sub">logit -9.313; not observed later</text>
<text x="70" y="750" class="rank">#5</text>
<text x="120" y="750">Heart failure (I50)</text>
<rect x="330" y="730" width="427.2" height="26" rx="8" fill="#2563eb" opacity="0.88"/>
<text x="769.2" y="750" class="sub">logit -9.815; not observed later</text>
<text x="70" y="788" class="rank">#6</text>
<text x="120" y="788">Type 2 diabetes (E11)</text>
<rect x="330" y="768" width="424.9" height="26" rx="8" fill="#2563eb" opacity="0.88"/>
<text x="766.9" y="788" class="sub">logit -9.848; not observed later</text>
<text x="70" y="826" class="rank">#7</text>
<text x="120" y="826">Hypertension (I10-I15)</text>
<rect x="330" y="806" width="422.5" height="26" rx="8" fill="#2563eb" opacity="0.88"/>
<text x="764.5" y="826" class="sub">logit -9.882; not observed later</text>
<text x="70" y="864" class="rank">#8</text>
<text x="120" y="864">Chronic kidney disease (N18)</text>
<rect x="330" y="844" width="378.7" height="26" rx="8" fill="#2563eb" opacity="0.88"/>
<text x="720.7" y="864" class="sub">logit -10.513; not observed later</text>
<text x="70" y="902" class="rank">#9</text>
<text x="120" y="902">Chronic obstructive pulmonary disease (J44)</text>
<rect x="330" y="882" width="315.7" height="26" rx="8" fill="#2563eb" opacity="0.88"/>
<text x="657.7" y="902" class="sub">logit -11.418; not observed later</text>
<text x="70" y="940" class="rank">#10</text>
<text x="120" y="940">Disorders of lipoprotein metabolism (E78)</text>
<rect x="330" y="920" width="110.0" height="26" rx="8" fill="#2563eb" opacity="0.88"/>
<text x="452.0" y="940" class="sub">logit -14.378; not observed later</text>
<text x="70" y="992" class="section">Top death candidates</text>
<text x="70" y="1048" class="rank">#1</text>
<text x="120" y="1048">death:I61</text>
<rect x="330" y="1028" width="730.0" height="26" rx="8" fill="#2563eb" opacity="0.88"/>
<text x="1072.0" y="1048" class="sub">logit -10.032; not observed later</text>
<text x="70" y="1086" class="rank">#2</text>
<text x="120" y="1086">death:I64</text>
<rect x="330" y="1066" width="470.5" height="26" rx="8" fill="#2563eb" opacity="0.88"/>
<text x="812.5" y="1086" class="sub">logit -10.705; not observed later</text>
<text x="70" y="1124" class="rank">#3</text>
<text x="120" y="1124">death:I48</text>
<rect x="330" y="1104" width="460.0" height="26" rx="8" fill="#2563eb" opacity="0.88"/>
<text x="802.0" y="1124" class="sub">logit -10.732; not observed later</text>
<text x="70" y="1162" class="rank">#4</text>
<text x="120" y="1162">death:I62</text>
<rect x="330" y="1142" width="441.0" height="26" rx="8" fill="#2563eb" opacity="0.88"/>
<text x="783.0" y="1162" class="sub">logit -10.781; not observed later</text>
<text x="70" y="1200" class="rank">#5</text>
<text x="120" y="1200">death:F01</text>
<rect x="330" y="1180" width="325.6" height="26" rx="8" fill="#2563eb" opacity="0.88"/>
<text x="667.6" y="1200" class="sub">logit -11.080; not observed later</text>
<text x="70" y="1238" class="rank">#6</text>
<text x="120" y="1238">death:U07</text>
<rect x="330" y="1218" width="304.6" height="26" rx="8" fill="#2563eb" opacity="0.88"/>
<text x="646.6" y="1238" class="sub">logit -11.135; not observed later</text>
<text x="70" y="1276" class="rank">#7</text>
<text x="120" y="1276">death:I63</text>
<rect x="330" y="1256" width="290.8" height="26" rx="8" fill="#2563eb" opacity="0.88"/>
<text x="632.8" y="1276" class="sub">logit -11.171; not observed later</text>
<text x="70" y="1314" class="rank">#8</text>
<text x="120" y="1314">death:I60</text>
<rect x="330" y="1294" width="278.1" height="26" rx="8" fill="#2563eb" opacity="0.88"/>
<text x="620.1" y="1314" class="sub">logit -11.204; not observed later</text>
<text x="70" y="1352" class="rank">#9</text>
<text x="120" y="1352">death:I25</text>
<rect x="330" y="1332" width="272.2" height="26" rx="8" fill="#2563eb" opacity="0.88"/>
<text x="614.2" y="1352" class="sub">logit -11.219; not observed later</text>
<text x="70" y="1390" class="rank">#10</text>
<text x="120" y="1390">death:G30</text>
<rect x="330" y="1370" width="110.0" height="26" rx="8" fill="#2563eb" opacity="0.88"/>
<text x="452.0" y="1390" class="sub">logit -11.640; not observed later</text>
<text x="70" y="1442" class="section">Top cancer candidates</text>
<text x="70" y="1498" class="rank">#1</text>
<text x="120" y="1498">cancer:C44</text>
<rect x="330" y="1478" width="730.0" height="26" rx="8" fill="#2563eb" opacity="0.88"/>
<text x="1072.0" y="1498" class="sub">logit -10.895; not observed later</text>
<text x="70" y="1536" class="rank">#2</text>
<text x="120" y="1536">cancer:C71</text>
<rect x="330" y="1516" width="721.0" height="26" rx="8" fill="#2563eb" opacity="0.88"/>
<text x="1063.0" y="1536" class="sub">logit -10.927; not observed later</text>
<text x="70" y="1574" class="rank">#3</text>
<text x="120" y="1574">cancer:C34</text>
<rect x="330" y="1554" width="649.0" height="26" rx="8" fill="#2563eb" opacity="0.88"/>
<text x="991.0" y="1574" class="sub">logit -11.186; not observed later</text>
<text x="70" y="1612" class="rank">#4</text>
<text x="120" y="1612">cancer:C50</text>
<rect x="330" y="1592" width="398.2" height="26" rx="8" fill="#2563eb" opacity="0.88"/>
<text x="740.2" y="1612" class="sub">logit -12.090; not observed later</text>
<text x="70" y="1650" class="rank">#5</text>
<text x="120" y="1650">cancer:C64</text>
<rect x="330" y="1630" width="370.6" height="26" rx="8" fill="#2563eb" opacity="0.88"/>
<text x="712.6" y="1650" class="sub">logit -12.189; not observed later</text>
<text x="70" y="1688" class="rank">#6</text>
<text x="120" y="1688">cancer:D32</text>
<rect x="330" y="1668" width="370.1" height="26" rx="8" fill="#2563eb" opacity="0.88"/>
<text x="712.1" y="1688" class="sub">logit -12.191; not observed later</text>
<text x="70" y="1726" class="rank">#7</text>
<text x="120" y="1726">cancer:D33</text>
<rect x="330" y="1706" width="229.1" height="26" rx="8" fill="#2563eb" opacity="0.88"/>
<text x="571.1" y="1726" class="sub">logit -12.699; not observed later</text>
<text x="70" y="1764" class="rank">#8</text>
<text x="120" y="1764">cancer:D43</text>
<rect x="330" y="1744" width="143.3" height="26" rx="8" fill="#2563eb" opacity="0.88"/>
<text x="485.3" y="1764" class="sub">logit -13.008; not observed later</text>
<text x="70" y="1802" class="rank">#9</text>
<text x="120" y="1802">cancer:C18</text>
<rect x="330" y="1782" width="114.3" height="26" rx="8" fill="#2563eb" opacity="0.88"/>
<text x="456.3" y="1802" class="sub">logit -13.112; not observed later</text>
<text x="70" y="1840" class="rank">#10</text>
<text x="120" y="1840">cancer:C22</text>
<rect x="330" y="1820" width="110.0" height="26" rx="8" fill="#2563eb" opacity="0.88"/>
<text x="452.0" y="1840" class="sub">logit -13.128; not observed later</text>
</svg>